<svg xmlns="http://www.w3.org/2000/svg" xmlns:xlink="http://www.w3.org/1999/xlink">
    <defs>
        <symbol id="search-icon" xmlns="http://www.w3.org/2000/svg"
                fill="none"
                viewBox="0 0 24 24"
                stroke-width="1.5"
                stroke="currentColor"
                class="h-6 w-6">
            <path stroke-linecap="round" stroke-linejoin="round"
                  d="M21 21l-5.197-5.197m0 0A7.5 7.5 0 105.196 5.196a7.5 7.5 0 0010.607 10.607z"/>
        </symbol>
        <symbol id="light-theme-icon" xmlns="http://www.w3.org/2000/svg" fill="none" viewBox="0 0 24 24"
                stroke-width="1.5" stroke="currentColor" class="w-6 h-6">
            <path stroke-linecap="round" stroke-linejoin="round"
                  d="M12 3v2.25m6.364.386l-1.591 1.591M21 12h-2.25m-.386 6.364l-1.591-1.591M12 18.75V21m-4.773-4.227l-1.591 1.591M5.25 12H3m4.227-4.773L5.636 5.636M15.75 12a3.75 3.75 0 11-7.5 0 3.75 3.75 0 017.5 0z"/>
        </symbol>
        <symbol id="vertical-ellipsis-icon" xmlns="http://www.w3.org/2000/svg" fill="none" viewBox="0 0 24 24" stroke-width="1.5"
                stroke="currentColor" class="w-6 h-6">
            <path stroke-linecap="round" stroke-linejoin="round"
                  d="M12 6.75a.75.75 0 110-1.5.75.75 0 010 1.5zM12 12.75a.75.75 0 110-1.5.75.75 0 010 1.5zM12 18.75a.75.75 0 110-1.5.75.75 0 010 1.5z"/>
        </symbol>
        <symbol id="close-icon" xmlns="http://www.w3.org/2000/svg" fill="none" viewBox="0 0 24 24" stroke-width="1.5" stroke="currentColor" class="w-6 h-6">
            <path stroke-linecap="round" stroke-linejoin="round" d="M6 18L18 6M6 6l12 12" />
        </symbol>
    </defs>
</svg>

