<svg xmlns="http://www.w3.org/2000/svg" xmlns:xlink="http://www.w3.org/1999/xlink">
    <defs>
        <symbol id="search-icon" xmlns="http://www.w3.org/2000/svg"
                fill="none"
                viewBox="0 0 24 24"
                stroke-width="1.5"
                stroke="currentColor"
                class="h-6 w-6">
            <path stroke-linecap="round" stroke-linejoin="round"
                  d="M21 21l-5.197-5.197m0 0A7.5 7.5 0 105.196 5.196a7.5 7.5 0 0010.607 10.607z"/>
        </symbol>
        <symbol id="light-theme-icon" xmlns="http://www.w3.org/2000/svg" fill="none" viewBox="0 0 24 24"
                stroke-width="1.5" stroke="currentColor" class="w-6 h-6">
            <path stroke-linecap="round" stroke-linejoin="round"
                  d="M12 3v2.25m6.364.386l-1.591 1.591M21 12h-2.25m-.386 6.364l-1.591-1.591M12 18.75V21m-4.773-4.227l-1.591 1.591M5.25 12H3m4.227-4.773L5.636 5.636M15.75 12a3.75 3.75 0 11-7.5 0 3.75 3.75 0 017.5 0z"/>
        </symbol>
        <symbol id="vertical-ellipsis-icon" xmlns="http://www.w3.org/2000/svg" fill="none" viewBox="0 0 24 24"
                stroke-width="1.5"
                stroke="currentColor" class="w-6 h-6">
            <path stroke-linecap="round" stroke-linejoin="round"
                  d="M12 6.75a.75.75 0 110-1.5.75.75 0 010 1.5zM12 12.75a.75.75 0 110-1.5.75.75 0 010 1.5zM12 18.75a.75.75 0 110-1.5.75.75 0 010 1.5z"/>
        </symbol>
        <symbol id="close-icon" xmlns="http://www.w3.org/2000/svg" fill="none" viewBox="0 0 24 24" stroke-width="1.5"
                stroke="currentColor" class="w-6 h-6">
            <path stroke-linecap="round" stroke-linejoin="round" d="M6 18L18 6M6 6l12 12"/>
        </symbol>
        <symbol id="heart-icon" xmlns="http://www.w3.org/2000/svg" viewBox="0 0 24 24" fill="currentColor"
                class="w-6 h-6">
            <path d="M11.645 20.91l-.007-.003-.022-.012a15.247 15.247 0 01-.383-.218 25.18 25.18 0 01-4.244-3.17C4.688 15.36 2.25 12.174 2.25 8.25 2.25 5.322 4.714 3 7.688 3A5.5 5.5 0 0112 5.052 5.5 5.5 0 0116.313 3c2.973 0 5.437 2.322 5.437 5.25 0 3.925-2.438 7.111-4.739 9.256a25.175 25.175 0 01-4.244 3.17 15.247 15.247 0 01-.383.219l-.022.012-.007.004-.003.001a.752.752 0 01-.704 0l-.003-.001z"/>
        </symbol>
        <symbol fill="currentColor" id="twitter-icon" xmlns="http://www.w3.org/2000/svg" viewBox="0 0 24 24"
        >
            <path d="M22,5.8a8.49,8.49,0,0,1-2.36.64,4.13,4.13,0,0,0,1.81-2.27,8.21,8.21,0,0,1-2.61,1,4.1,4.1,0,0,0-7,3.74A11.64,11.64,0,0,1,3.39,4.62a4.16,4.16,0,0,0-.55,2.07A4.09,4.09,0,0,0,4.66,10.1,4.05,4.05,0,0,1,2.8,9.59v.05a4.1,4.1,0,0,0,3.3,4A3.93,3.93,0,0,1,5,13.81a4.9,4.9,0,0,1-.77-.07,4.11,4.11,0,0,0,3.83,2.84A8.22,8.22,0,0,1,3,18.34a7.93,7.93,0,0,1-1-.06,11.57,11.57,0,0,0,6.29,1.85A11.59,11.59,0,0,0,20,8.45c0-.17,0-.35,0-.53A8.43,8.43,0,0,0,22,5.8Z"/>
        </symbol>
        <symbol fill="currentColor" xmlns="http://www.w3.org/2000/svg" viewBox="0 0 24 24" id="linkedin-icon">
            <path d="M20.47,2H3.53A1.45,1.45,0,0,0,2.06,3.43V20.57A1.45,1.45,0,0,0,3.53,22H20.47a1.45,1.45,0,0,0,1.47-1.43V3.43A1.45,1.45,0,0,0,20.47,2ZM8.09,18.74h-3v-9h3ZM6.59,8.48h0a1.56,1.56,0,1,1,0-3.12,1.57,1.57,0,1,1,0,3.12ZM18.91,18.74h-3V13.91c0-1.21-.43-2-1.52-2A1.65,1.65,0,0,0,12.85,13a2,2,0,0,0-.1.73v5h-3s0-8.18,0-9h3V11A3,3,0,0,1,15.46,9.5c2,0,3.45,1.29,3.45,4.06Z"/>
        </symbol>
        <symbol id="email-icon" xmlns="http://www.w3.org/2000/svg" viewBox="0 0 24 24" fill="currentColor"
                class="w-6 h-6">
            <path d="M1.5 8.67v8.58a3 3 0 003 3h15a3 3 0 003-3V8.67l-8.928 5.493a3 3 0 01-3.144 0L1.5 8.67z"/>
            <path d="M22.5 6.908V6.75a3 3 0 00-3-3h-15a3 3 0 00-3 3v.158l9.714 5.978a1.5 1.5 0 001.572 0L22.5 6.908z"/>
        </symbol>
    </defs>
</svg>

